<?xml version="1.0" encoding="UTF-8" standalone="no"?>
<!-- Created with Inkscape (http://www.inkscape.org/) -->

<svg
   xmlns:dc="http://purl.org/dc/elements/1.1/"
   xmlns:cc="http://creativecommons.org/ns#"
   xmlns:rdf="http://www.w3.org/1999/02/22-rdf-syntax-ns#"
   xmlns:svg="http://www.w3.org/2000/svg"
   xmlns="http://www.w3.org/2000/svg"
   xmlns:sodipodi="http://sodipodi.sourceforge.net/DTD/sodipodi-0.dtd"
   xmlns:inkscape="http://www.inkscape.org/namespaces/inkscape"
   id="svg2"
   viewBox="0 0 645.7 637.88"
   version="1.0"
   inkscape:version="0.92.5 (2060ec1f9f, 2020-04-08)"
   sodipodi:docname="rvn.svg">
  <defs
     id="defs12" />
  <sodipodi:namedview
     pagecolor="#ffffff"
     bordercolor="#666666"
     borderopacity="1"
     objecttolerance="10"
     gridtolerance="10"
     guidetolerance="10"
     inkscape:pageopacity="0"
     inkscape:pageshadow="2"
     inkscape:window-width="1528"
     inkscape:window-height="836"
     id="namedview10"
     showgrid="false"
     inkscape:zoom="1.0487866"
     inkscape:cx="322.85001"
     inkscape:cy="318.94"
     inkscape:window-x="72"
     inkscape:window-y="27"
     inkscape:window-maximized="1"
     inkscape:current-layer="svg2" />
  <g
     id="g2161"
     transform="translate(103.44 .0013299)">
    <path
       id="path2159"
       style="fill:#ff0000"
       d="m153.83 184.33a289.1 289.1 0 1 1 -578.2 0 289.1 289.1 0 1 1 578.2 0z"
       transform="translate(320.93 164.44)" />
    <g
       id="layer1"
       transform="translate(-5.4832 -9.0863)">
      <g
         id="g3196"
         transform="translate(-199.29 -88.571)">
        <path
           id="path2221"
           style="fill-rule:evenodd;fill:#000000"
           d="m517.25 0c-7.93-0.050211-18.94 1.3307-24.16 2.5938-23.57 5.7107-64.79 37.921-97.25 61.344-26.86 19.384-63.77 23.094-68.5 35.75-4.48 11.992-46.1 119.03-55.68 131.81-9.59 12.78-39.54-1.01-53.38 3.25s-33-4.93-34.06-10.25c-1.07-5.32 23.04-16.3-7.31-7.91-57.85 16-48.97 8.5-35.13-6.4 13.84-14.91 15.95-11.69-4.28-11.69s-65.214 52.55-51.969 21.59c20.429-47.75 6.5-43.39 6.5-47.65s-23.158 31.52-34.375 39.9c-10.407 7.79-0.879-7.51 1.25-16.03 2.13-8.51 9.171-13.93 6.219-17-6.517-6.77-9.594-44.71-9.594-34.06s-26.607 85.8-31.812 84.69c-6.144-1.32-10.765-42.09-11.844-46.35-1.065-4.2-16.242-10.4-10.656-2.12 4.8896 7.25 0.0202 106.44 5.3435 104.31 5.3235-2.13 30.876 12.78 30.876 12.78s14.897-3.18 19.156-4.25c4.258-1.06 101.15 45.77 106.47 51.1 5.33 5.32-21.31 28.76-22.37 36.21-1.07 7.46 5.33 8.5 12.78 28.72 7.45 20.23-1.57 61.42 3.75 60.36 5.33-1.07 26.04-42.52 30.3-48.91s19.19-15.69 40.48-18.88c21.29-3.2 76.67 31.94 83.06 30.87 6.39-1.06 11.51 10.03 9.38 28.13s-19.23 18.67-16.72 51.09c0.87 11.3 18.34 14.14 28.62 26.19 2.77 3.24-5.34-8.53-7.46-12.78-2.13-4.26 6.4-7.44 6.4-7.44s-10.65-0.03-13.84-1.09c-3.2-1.07-9-16.99-2.13-21.29 22.77-14.22 27.68 1.07 34.07 0 6.38-1.06 12.78 13.83 10.65 5.32-2.13-8.52-13.85-17.03-24.5-20.22-10.65-3.2-5.03-15.93-4.12-21.28 1.59-9.31 7.05-10.03 9.06-2.87 2.62 9.32 17.58 22.44 14.35 16.45-3.38-6.26-7.51-17.26-4.2-16.74 2.11 0.33 16.86 6.64 12.6 4.22-16.33-9.28-15.03-14.1-15.91-23.76 2.13-2.13 20.34-3.52 25.9-3.14-1.94-4.65-28.08-8.26-30.21-9.32s-1.06-20.22-1.06-20.22 7.43-2.12 10.62-5.31c3.2-3.2 17.93 0.49 21.13 2.62 3.19 2.13 17.7-2.15 24.09-4.28s14.99 1.2 18.19-5.18c3.19-6.39 22.09 0 25.28-2.13s6.09-11.71 8.22-15.97 29.81-9.15 31.94-11.28 4.56-9.87 4.56-14.12c0-4.26 23.09-14.62 24.15-17.82 1.07-3.19 5.35-6.36 4.29-10.62-1.07-4.26 13.83-14.9 19.15-18.1 5.33-3.19 9.6-24.49 8.53-27.68-1.06-3.2-14.92 17.03-20.25 18.09-5.32 1.06-43.63 9.59-56.4 13.84-12.78 4.26-51.12 12.78-56.44 13.85-5.32 1.06-14.9-9.59-15.97-13.85-1.06-4.25 13.83-6.4 6.38-7.47-7.46-1.06-48.96-21.27-53.22-25.53-4.26-4.25 9.58-11.71 13.84-13.84s7.44-5.33 8.5-10.66c1.07-5.32 13.86-11.72 22.38-25.56 8.51-13.84 19.15-77.7 18.09-86.22-1.06-8.51 18.27-21.73 23.41-31.93 5.35-10.636 24.81-30.668 37.34-40.224 23.9-18.232 58.37-59.638 56.53-63.687-0.63-1.3943-4.27-1.9389-9.03-1.969zm-196.91 406.94c3.91-0.08 8.1 1.25 8.1 1.25 4.64-3.44 0.62 3.41 1.99 13.96 1.21 9.33 3.97 8.86-11.28 0.47-7.85-4.32-15.25 1.78-5.31-11.71 1.82-2.47 3.46-3.91 6.5-3.97z"
           transform="translate(204.77 97.658)" />
      </g>
    </g>
  </g>
  <metadata
     id="metadata7">
    <rdf:RDF>
      <cc:Work>
        <dc:format>image/svg+xml</dc:format>
        <dc:type
           rdf:resource="http://purl.org/dc/dcmitype/StillImage" />
        <cc:license
           rdf:resource="http://creativecommons.org/licenses/publicdomain/" />
        <dc:publisher>
          <cc:Agent
             rdf:about="http://openclipart.org/">
            <dc:title>Openclipart</dc:title>
          </cc:Agent>
        </dc:publisher>
        <dc:title></dc:title>
        <dc:date>2007-08-19T17:08:29</dc:date>
        <dc:description>Raven over a Red Moon</dc:description>
        <dc:source>https://openclipart.org/detail/4838/raven-on-red-by-capi_x</dc:source>
        <dc:creator>
          <cc:Agent>
            <dc:title>capi_x</dc:title>
          </cc:Agent>
        </dc:creator>
        <dc:subject>
          <rdf:Bag>
            <rdf:li>bird</rdf:li>
            <rdf:li>line art</rdf:li>
            <rdf:li>nature</rdf:li>
            <rdf:li>tattoo</rdf:li>
          </rdf:Bag>
        </dc:subject>
      </cc:Work>
      <cc:License
         rdf:about="http://creativecommons.org/licenses/publicdomain/">
        <cc:permits
           rdf:resource="http://creativecommons.org/ns#Reproduction" />
        <cc:permits
           rdf:resource="http://creativecommons.org/ns#Distribution" />
        <cc:permits
           rdf:resource="http://creativecommons.org/ns#DerivativeWorks" />
      </cc:License>
    </rdf:RDF>
  </metadata>
  <path
     style="fill:#ff6600;fill-opacity:1;stroke-width:0.95348281"
     d="M 258.39457,635.76701 C 242.5635,633.99164 235.76292,632.78506 220.46759,629.03786 135.91552,608.32351 65.927527,551.21012 28.231796,472.16475 14.398475,443.15721 5.481027,411.29443 1.8401566,377.86524 c -1.40326807,-12.88432 -1.40326807,-45.27813 0,-58.16245 C 9.2065168,252.06745 37.736046,192.24213 85.295085,144.70103 129.50894,100.50386 184.41395,72.844569 247.42952,63.023192 c 18.25952,-2.845864 62.51302,-3.098417 80.02348,-0.45669 22.97646,3.466358 41.5536,8.071414 61.09197,15.143985 11.91382,4.312607 42.42999,18.746326 42.42999,20.068787 0,1.442389 -30.67865,78.012496 -39.04436,97.449906 -4.27794,9.93964 -9.82304,22.16806 -12.32241,27.17426 -7.11324,14.24764 -10.87824,15.76014 -32.53972,13.07209 -14.92411,-1.85199 -20.46509,-1.96853 -27.93524,-0.5876 -6.2647,1.15809 -14.32286,0.025 -21.44013,-3.01474 -4.67428,-1.99637 -9.74057,-6.1471 -9.74057,-7.9803 0,-0.58208 1.71627,-2.73423 3.81394,-4.78254 3.67996,-3.59339 4.87094,-6.19764 2.8343,-6.19764 -0.53879,0 -10.94368,2.53044 -23.12196,5.6232 -25.37036,6.44297 -34.65535,7.86356 -35.58373,5.44427 -0.80986,-2.11046 0.77371,-4.25655 11.50718,-15.59478 7.35782,-7.7724 8.92296,-9.89709 7.65036,-10.38543 -0.87996,-0.33767 -5.52388,-0.35973 -10.31982,-0.049 -11.15137,0.72246 -17.41512,3.76675 -35.11039,17.06428 -16.59959,12.47412 -19.03609,14.10668 -21.05342,14.10668 -2.49724,0 -2.15079,-1.66329 3.07464,-14.76109 8.95079,-22.43559 10.71088,-34.76017 5.72249,-40.07008 -2.11277,-2.24893 -2.32602,-2.28909 -4.01922,-0.75677 -0.98344,0.89 -6.37313,7.61319 -11.9771,14.94042 -11.00458,14.38859 -21.20524,25.3918 -23.53977,25.3918 -0.80197,0 -1.45812,-0.13767 -1.45812,-0.30593 0,-1.27872 8.42174,-22.25741 10.67987,-26.60371 l 2.83482,-5.45629 -2.57357,-5.26019 c -1.55843,-3.18532 -3.51599,-10.24754 -4.96278,-17.90406 -2.74653,-14.5349 -3.25678,-16.38426 -3.75158,-13.59733 -1.57203,8.85434 -3.09509,14.53174 -7.67372,28.60449 -9.70324,29.82369 -20.77837,55.77874 -23.80102,55.77874 -2.69082,0 -5.44251,-9.61017 -9.33151,-32.58985 -1.23265,-7.28358 -2.81781,-13.94145 -3.52258,-14.79528 -0.70477,-0.85382 -3.15051,-2.38105 -5.43498,-3.39384 -4.87629,-2.16182 -6.89257,-1.236 -5.1624,2.37045 0.57115,1.19054 1.34468,3.02274 1.71895,4.07157 0.37428,1.04883 0.97837,23.36033 1.34243,49.58111 0.45568,32.81878 1.00204,48.302 1.75342,49.68907 0.75249,1.38913 2.36134,2.18459 5.18005,2.56119 2.24869,0.30046 9.37723,3.17864 15.84119,6.39598 l 11.75266,5.84971 9.50431,-2.06773 c 5.55349,-1.2082 10.57683,-1.7997 12.08442,-1.42296 4.62725,1.15634 40.11326,17.58561 67.89368,31.4333 28.42221,14.16762 35.03937,17.86212 35.87013,20.02706 0.78725,2.05151 -1.94498,6.47291 -10.8026,17.48123 -4.52066,5.61832 -9.00514,11.50232 -9.96551,13.07557 -2.29705,3.76294 -2.21076,8.8457 0.21043,12.39528 2.80012,4.10507 8.45371,15.33271 10.80269,21.45336 1.87605,4.88834 2.0126,7.06626 2.0126,32.09964 0,14.77051 0.31917,27.17509 0.70927,27.5657 2.00783,2.01051 8.46771,-7.34655 22.10186,-32.01434 10.26098,-18.56484 13.71871,-22.5829 23.55646,-27.37382 7.81882,-3.80773 13.91304,-5.83302 22.58275,-7.50494 12.59276,-2.42848 22.85979,0.73855 59.61743,18.38993 12.50215,6.00365 24.3015,11.15377 26.22078,11.44472 7.30118,1.10678 10.22515,7.4172 10.0723,21.73767 -0.10294,9.64388 -1.73472,14.49607 -7.53,22.39081 -8.98186,12.23575 -12.40671,30.59577 -7.50813,40.24981 0.74624,1.47067 5.47905,5.32872 11.01407,8.97832 5.33804,3.51975 11.43378,7.93716 13.54609,9.81648 l 3.84054,3.41694 -2.26144,-3.81393 c -7.1833,-12.11468 -7.08073,-11.84517 -5.26962,-13.84642 0.91453,-1.01055 2.5716,-2.13855 3.68237,-2.50667 1.95259,-0.6471 1.94051,-0.69221 -0.36412,-1.35952 -1.31104,-0.37962 -4.31451,-0.73956 -6.67438,-0.79986 -2.35987,-0.0603 -4.76713,-0.42487 -5.34948,-0.81016 -1.93945,-1.28314 -4.28062,-6.94399 -4.84595,-11.7173 -0.52786,-4.45702 -0.3773,-4.88716 2.73555,-7.81497 7.24659,-6.81585 18.73143,-8.32799 27.15311,-3.57509 2.78764,1.57325 6.21405,2.86045 7.61423,2.86045 1.72974,0 3.70876,1.22255 6.17388,3.81393 4.27255,4.49138 5.09459,4.72983 4.21428,1.22245 -1.71041,-6.81483 -11.75539,-15.86706 -21.58384,-19.45068 -9.41657,-3.43346 -10.81918,-6.77745 -7.94964,-18.95289 1.62773,-6.90639 3.57145,-10.49302 5.68654,-10.49302 0.79998,0 2.68678,2.70349 4.36336,6.25196 2.79535,5.91637 12.65644,17.54593 13.8585,16.34386 0.29269,-0.2927 -0.54965,-3.24389 -1.87188,-6.55821 -1.32222,-3.31432 -2.6974,-7.20597 -3.05596,-8.64812 -0.80892,-3.25361 0.4296,-3.37693 7.18268,-0.71511 6.44153,2.53901 7.99527,2.36633 3.51076,-0.3902 -8.32843,-5.11929 -11.78601,-9.97499 -12.26429,-17.22354 -0.29096,-4.4096 -0.17685,-4.65268 2.5559,-5.44502 1.57324,-0.45615 7.25838,-1.09707 12.63364,-1.42424 5.37526,-0.32718 9.7732,-0.91041 9.7732,-1.29605 0,-1.47792 -7.35439,-4.07749 -18.34114,-6.48308 -13.29821,-2.91167 -13.12379,-2.72084 -13.12379,-14.35871 v -7.40389 l 7.15458,-3.63149 c 8.14051,-4.1319 11.47337,-4.21329 22.08943,-0.53938 6.29153,2.17731 7.45399,2.06814 24.62777,-2.31283 3.14649,-0.80266 8.26867,-1.71679 11.38262,-2.0314 4.73449,-0.47834 6.12296,-1.06463 8.478,-3.57985 l 2.81626,-3.00782 h 12.02188 12.0219 l 4.02273,-8.30321 c 4.61243,-9.52035 5.11367,-9.89045 18.2803,-13.49769 l 8.95426,-2.45319 -0.66072,8.75236 c -0.96239,12.74867 -4.95176,35.25256 -8.62587,48.65833 -13.89314,50.69202 -39.95798,94.90159 -77.44967,131.36533 -15.16657,14.75074 -24.56802,22.34461 -42.25302,34.1292 -39.80945,26.52744 -84.9207,42.41853 -133.01085,46.855 -13.99572,1.29115 -43.15431,1.0463 -56.73223,-0.47638 z"
     id="path4526"
     inkscape:connector-curvature="0" />
  <path
     style="fill:#ff6600;fill-opacity:1;stroke-width:0.95348281"
     d="m 505.68233,317.82208 c -4.52849,-3.33028 -9.35503,-9.90491 -8.63975,-11.76891 0.27558,-0.71815 2.02397,-2.02839 3.8853,-2.91165 1.86134,-0.88327 3.59767,-1.95126 3.85852,-2.37332 0.26085,-0.42207 -1.95188,-1.53217 -4.91718,-2.4669 -11.44461,-3.60759 -43.24243,-19.21556 -48.68495,-23.89702 -2.3406,-2.0133 -2.39321,-2.25115 -0.97266,-4.39737 0.82598,-1.24791 3.95348,-3.77067 6.94999,-5.60612 2.99651,-1.83546 6.80444,-4.19533 8.46206,-5.24416 1.7471,-1.10544 4.04023,-4.01134 5.45576,-6.91364 1.53362,-3.14441 6.0101,-8.64155 12.03498,-14.77899 5.68881,-5.79509 10.60168,-11.77466 12.07128,-14.69224 3.56184,-7.07129 7.73875,-22.08095 11.61971,-41.75522 1.8571,-9.41445 3.46854,-17.20879 3.58096,-17.32076 0.42347,-0.42174 10.95545,13.47671 17.64721,23.28799 14.79369,21.69014 26.35916,45.16833 34.87809,70.80338 5.04444,15.17971 9.70212,33.68826 10.79075,42.87998 l 0.53015,4.47624 -6.5536,1.97575 c -12.45497,3.75488 -53.5675,13.53715 -56.89333,13.53715 -0.68717,0 -2.98365,-1.27539 -5.10329,-2.83419 z"
     id="path4528"
     inkscape:connector-curvature="0" />
  <path
     style="fill:#ff662e;fill-opacity:1;stroke-width:0.95348281"
     d="m 426.78008,424.66522 c -3.61822,-2.03232 -8.23069,-3.95931 -10.24994,-4.2822 -2.01924,-0.32289 -3.67136,-0.92706 -3.67136,-1.34261 0,-1.62396 5.70106,-9.63253 7.56861,-10.632 1.08663,-0.58155 4.50918,-0.93386 7.60567,-0.78291 l 5.62997,0.27445 -0.14506,7.62786 c -0.0798,4.19533 0.18171,8.8078 0.5811,10.24994 0.39938,1.44214 0.39618,2.61319 -0.007,2.60234 -0.4033,-0.0109 -3.69364,-1.68255 -7.31186,-3.71487 z"
     id="path4530"
     inkscape:connector-curvature="0" />
  <path
     style="fill:#ff2900;fill-opacity:1;stroke-width:0.95348281"
     d="M 269.35962,636.22278 C 232.24324,634.14867 193.73385,623.58591 158.27887,605.75438 111.5291,582.24231 69.65608,543.19696 42.213985,497.52733 20.059341,460.65717 5.7729974,417.38534 1.9201491,375.48153 c -1.23727983,-13.45673 -1.23727983,-39.9383 0,-53.39503 C 6.4204949,273.14047 25.411743,221.86004 53.651329,182.40126 97.29721,121.41548 161.69921,79.841441 234.52184,65.642178 c 19.37271,-3.777373 31.74091,-4.586178 62.29993,-4.074034 30.53167,0.511686 38.13494,1.448529 63.59546,7.83597 21.25569,5.332548 37.02292,11.334771 59.85446,22.785218 l 10.62662,5.329449 -1.27906,3.586819 c -5.82509,16.33502 -37.49387,93.61719 -45.88645,111.97788 -10.38498,22.71954 -12.99031,24.58454 -31.42017,22.49176 -5.24416,-0.59549 -18.37198,-1.11116 -29.17293,-1.14594 l -19.63809,-0.0632 -6.48769,-3.33719 c -3.56823,-1.83546 -7.10089,-4.27516 -7.85037,-5.42157 -1.26489,-1.93482 -1.08356,-2.38717 2.5271,-6.30427 4.01486,-4.35561 4.84186,-6.39034 2.59728,-6.39034 -0.71085,0 -9.98497,2.15266 -20.60916,4.78369 -32.34467,8.01 -39.86293,8.74664 -37.12882,3.63792 0.58477,-1.09265 5.09543,-6.39931 10.02369,-11.79256 4.92827,-5.39326 8.96048,-10.33102 8.96048,-10.97282 0,-0.87303 -2.4012,-1.05128 -9.53464,-0.70778 -8.56815,0.41258 -10.23539,0.80943 -16.44758,3.9149 -3.80211,1.90068 -12.70535,7.75553 -19.78496,13.01077 -15.68693,11.64452 -20.82888,14.86423 -21.94924,13.74386 -0.49288,-0.49288 0.17514,-3.63257 1.59938,-7.51707 9.53634,-26.0096 10.21472,-28.4113 10.27725,-36.38486 0.0546,-6.96855 -0.181,-8.04227 -2.24916,-10.24852 -2.21439,-2.36222 -2.38677,-2.39529 -4.15616,-0.79727 -1.01528,0.91694 -6.15362,7.19471 -11.41854,13.9506 -10.24005,13.13992 -22.40025,26.33263 -24.27173,26.33263 -0.86206,0 -0.82719,-0.87705 0.14215,-3.57556 2.58675,-7.20113 5.48682,-14.23561 8.85004,-21.46683 l 3.44309,-7.40297 -2.03703,-4.51557 c -2.4827,-5.50349 -4.33588,-12.26485 -6.46432,-23.58523 -0.88741,-4.71974 -1.90265,-8.90907 -2.25609,-9.30962 -0.35345,-0.40055 -1.20655,2.17386 -1.89579,5.7209 -3.67905,18.93352 -25.1053,76.12772 -29.54774,78.8733 -2.55729,1.58049 -5.05303,-6.36247 -9.51943,-30.29662 -1.54791,-8.29481 -3.37931,-15.76595 -4.06978,-16.60254 -1.88103,-2.27909 -9.39372,-5.37277 -10.45938,-4.30711 -0.56011,0.5601 -0.34983,3.01011 0.56006,6.52542 1.1413,4.40939 1.64054,15.66083 2.30474,51.94267 0.55535,30.3363 1.21052,46.99168 1.89909,48.27829 0.64214,1.19986 2.45271,2.21661 4.65262,2.61277 1.98077,0.3567 9.05342,3.25797 15.71701,6.44729 l 12.1156,5.79874 7.90754,-1.56965 c 12.06399,-2.3947 14.07746,-2.1407 26.41689,3.33246 34.47398,15.29098 89.43971,42.89146 90.40853,45.39773 0.99308,2.56904 -1.02608,6.22464 -9.41552,17.04638 -10.77447,13.89824 -12.25012,16.29391 -12.2571,19.89895 -0.003,1.67265 2.86579,8.51284 6.90918,16.47257 l 6.91473,13.61213 0.47674,28.50135 c 0.26221,15.67575 0.84131,28.85831 1.28691,29.2946 1.97652,1.93522 7.68743,-6.65712 27.66564,-41.62433 5.13946,-8.99542 12.3089,-15.36837 21.69223,-19.28234 4.51815,-1.8846 11.55304,-4.16923 15.63311,-5.07696 14.79254,-3.29103 22.80136,-1.09507 60.91169,16.70151 12.11676,5.65824 24.17581,11.00972 26.79789,11.89219 2.62208,0.88246 5.71505,2.49138 6.87327,3.57536 2.93339,2.74539 4.41027,10.41848 3.93173,20.42735 -0.433,9.05679 -0.99,10.46737 -9.74093,24.66878 -4.67325,7.58397 -6.64351,14.57169 -6.72109,23.83707 -0.0839,10.02411 1.18117,12.74331 8.28263,17.8025 3.1866,2.27018 9.39773,6.80495 13.8025,10.07725 l 8.00866,5.94965 -3.87541,-7.02051 c -2.13148,-3.86129 -3.87541,-7.70754 -3.87541,-8.54724 0,-0.8397 1.39163,-2.24637 3.09251,-3.12593 2.82133,-1.45896 2.92585,-1.66427 1.19185,-2.34117 -1.04536,-0.40809 -3.93872,-0.77214 -6.42969,-0.80899 -5.61584,-0.0832 -7.69944,-1.9627 -9.72067,-8.76889 -1.97356,-6.64574 -1.93677,-6.9239 1.42212,-10.74946 6.05455,-6.89575 18.20924,-8.69907 27.33651,-4.05576 2.73574,1.39176 5.85607,2.53046 6.93405,2.53046 1.07798,0 3.88996,1.77901 6.24884,3.95334 2.35888,2.17434 4.53739,3.70483 4.84114,3.40109 0.30374,-0.30376 0.0633,-2.03376 -0.53426,-3.84447 -1.71881,-5.20806 -11.07418,-13.39326 -20.3931,-17.84236 -6.73039,-3.21325 -8.29065,-4.38271 -9.15486,-6.8618 -1.76009,-5.04899 1.99207,-20.8351 5.24932,-22.08503 1.37369,-0.52713 1.888,0.11758 6.3822,8.00037 3.04145,5.33466 11.69535,15.01155 12.62225,14.11435 0.37765,-0.36556 -0.63524,-4.31783 -2.25087,-8.78284 -1.61563,-4.46501 -2.57291,-8.34354 -2.12728,-8.61896 0.44563,-0.27541 3.29085,0.3527 6.32271,1.39581 3.03185,1.04312 5.66798,1.74107 5.85804,1.55101 0.19006,-0.19007 -2.06676,-2.16691 -5.01517,-4.39298 -3.4388,-2.59632 -6.00419,-5.46444 -7.15546,-7.99987 -1.93721,-4.2663 -2.42436,-10.62778 -0.88664,-11.57815 0.52248,-0.32292 6.10036,-1.07167 12.39528,-1.66389 6.29493,-0.59224 11.44532,-1.41094 11.44532,-1.81934 0,-1.38824 -3.87559,-2.82221 -16.39928,-6.06773 -6.87703,-1.78218 -12.97286,-3.70901 -13.54629,-4.28185 -0.57345,-0.57284 -1.18952,-4.80037 -1.36907,-9.39453 l -0.32647,-8.35301 6.98783,-3.2209 c 8.25577,-3.80533 12.52275,-3.98949 22.16515,-0.95666 l 6.56996,2.06645 12.97644,-2.87812 c 7.13705,-1.58298 15.03262,-3.14958 17.54572,-3.48133 3.10811,-0.41031 5.5876,-1.4973 7.75373,-3.3992 3.15563,-2.77068 3.29146,-2.79599 15.00301,-2.79599 h 11.81854 l 3.99998,-8.06529 c 2.20849,-4.45308 5.07302,-8.76839 6.39585,-9.63515 1.31775,-0.86341 6.47845,-2.76489 11.46825,-4.22549 l 9.07235,-2.65565 v 2.19174 c 0,4.99095 -3.16021,26.6588 -5.78361,39.65514 -6.48895,32.14625 -20.39547,66.33741 -38.49608,94.64801 -49.40495,77.27281 -131.72937,126.58223 -222.22811,133.1068 -14.52799,1.0474 -22.08143,1.04532 -40.99041,-0.0113 z"
     id="path4532"
     inkscape:connector-curvature="0" />
  <path
     style="fill:#ff2900;fill-opacity:1;stroke-width:0.95348281"
     d="m 507.73032,318.89789 c -4.12315,-2.52434 -10.01157,-9.36187 -10.01157,-11.62528 0,-1.2023 1.26513,-2.68282 3.33719,-3.90537 1.83546,-1.08294 3.33719,-2.31816 3.33719,-2.74493 0,-0.42677 -3.11073,-1.94189 -6.91275,-3.36694 -9.52156,-3.56881 -36.47943,-16.5933 -42.49324,-20.53028 -7.39935,-4.84403 -6.91215,-5.98073 6.28748,-14.66941 5.73805,-3.77709 7.95201,-5.92874 10.34122,-10.05017 1.67202,-2.88429 6.83948,-9.3203 11.48324,-14.30224 4.64376,-4.98195 9.40041,-10.4067 10.57032,-12.05501 3.35413,-4.72566 8.35266,-21.12768 12.59843,-41.34003 2.14807,-10.2261 4.02025,-18.977 4.1604,-19.44644 0.40044,-1.3413 9.59101,10.67588 19.38698,25.34956 9.70399,14.53592 22.72021,39.90429 28.85586,56.23959 6.32348,16.83535 15.32631,50.50093 15.32631,57.31187 0,0.97618 -3.39098,2.33486 -11.20342,4.48891 -9.54749,2.63243 -50.30515,12.40181 -51.72645,12.39853 -0.2622,-6.1e-4 -1.76394,-0.78917 -3.33719,-1.75236 z"
     id="path4534"
     inkscape:connector-curvature="0" />
  <path
     style="fill:#ff2900;fill-opacity:1;stroke-width:0.95348281"
     d="m 424.8215,423.56283 c -4.17103,-2.05939 -8.28292,-3.74435 -9.13754,-3.74435 -2.5666,0 -2.75965,-0.95554 -0.84773,-4.196 3.80809,-6.45423 6.97889,-7.95416 15.66199,-7.40881 l 2.86044,0.17965 0.12885,9.52651 c 0.0709,5.23959 -0.14367,9.4952 -0.47674,9.45693 -0.33308,-0.0383 -4.01825,-1.75454 -8.18927,-3.81393 z"
     id="path4536"
     inkscape:connector-curvature="0" />
</svg>
